<svg width="121" height="120" viewBox="0 0 121 120" fill="none" xmlns="http://www.w3.org/2000/svg">
<path d="M102.885 80.8973L84.0335 56.438H36.9663L18.1147 80.8973C16.1187 83.4871 16.8712 87.2437 19.7112 88.8647L51.0062 106.728C56.8898 110.086 64.1099 110.086 69.9934 106.728L101.288 88.8647C104.128 87.2437 104.881 83.4871 102.885 80.8973Z" fill="url(#paint0_linear)"/>
<path d="M50.826 38.4555L36.9663 56.4382L38.3702 61.4248C39.2797 64.6552 42.9887 66.1643 45.8952 64.4861C48.2142 63.1472 51.1726 63.8109 52.6973 66.0123C56.4719 71.4621 64.5285 71.4621 68.3029 66.0123C69.8276 63.8111 72.7858 63.1472 75.105 64.4861H75.1052C78.0117 66.1641 81.7207 64.6552 82.63 61.4248L84.0339 56.4382L70.1742 38.4555C65.2847 32.1117 55.7154 32.1117 50.826 38.4555Z" fill="url(#paint1_linear)"/>
<path d="M60.3486 13.1899V22.753V32.3162L81.1306 10.7545L60.3486 13.1899Z" fill="url(#paint2_linear)"/>
<path d="M62.0025 35.0539C62.0025 35.0489 62.0027 35.0437 62.0025 35.0387V12.8647L58.6953 13.1681V35.3369H58.6955C58.6963 35.5554 58.8286 35.7641 59.0987 35.9201C59.6968 36.2654 60.7413 36.2221 61.4317 35.8234C61.8088 35.6056 62.0017 35.3271 62.0025 35.0629V35.0539Z" fill="url(#paint3_linear)"/>
<path d="M61.4315 13.6383C62.1221 13.2398 62.197 12.6365 61.5991 12.2914C61.0012 11.9463 59.9565 11.9894 59.266 12.3881C58.5754 12.7867 58.5006 13.3898 59.0985 13.7351C59.6964 14.0804 60.7409 14.0371 61.4315 13.6383Z" fill="#EBCBA0"/>
<defs>
<linearGradient id="paint0_linear" x1="49.8988" y1="50.3601" x2="51.6638" y2="120.164" gradientUnits="userSpaceOnUse">
<stop stop-color="#16D5A4"/>
<stop offset="1" stop-color="#22876D"/>
</linearGradient>
<linearGradient id="paint1_linear" x1="36.9663" y1="51.8983" x2="84.0343" y2="51.8983" gradientUnits="userSpaceOnUse">
<stop stop-color="#D1E5F6"/>
<stop offset="1" stop-color="#EAEDF7"/>
</linearGradient>
<linearGradient id="paint2_linear" x1="62.9889" y1="29.5781" x2="81.1222" y2="24.7866" gradientUnits="userSpaceOnUse">
<stop stop-color="#4A5068"/>
<stop offset="0.1002" stop-color="#565D77"/>
<stop offset="0.6138" stop-color="#636777"/>
<stop offset="0.8982" stop-color="#7A8096"/>
</linearGradient>
<linearGradient id="paint3_linear" x1="58.2356" y1="24.5089" x2="59.9615" y2="24.5089" gradientUnits="userSpaceOnUse">
<stop stop-color="#CC8241"/>
<stop offset="1" stop-color="#DEA861"/>
</linearGradient>
</defs>
</svg>
